<svg width="28" height="49" viewBox="0 0 28 49" fill="none" xmlns="http://www.w3.org/2000/svg">
<path d="M26.8617 1.30503C27.51 1.95357 27.8743 2.83305 27.8743 3.75008C27.8743 4.6671 27.51 5.54658 26.8617 6.19512L8.55675 24.5001L26.8617 42.805C27.4917 43.4573 27.8403 44.3309 27.8324 45.2376C27.8245 46.1444 27.4608 47.0118 26.8196 47.653C26.1784 48.2942 25.311 48.6579 24.4042 48.6658C23.4975 48.6737 22.6239 48.3251 21.9716 47.6951L1.22163 26.9451C0.573292 26.2966 0.209076 25.4171 0.209076 24.5001C0.209076 23.583 0.573292 22.7036 1.22163 22.055L21.9716 1.30503C22.6202 0.656697 23.4996 0.29248 24.4167 0.29248C25.3337 0.29248 26.2132 0.656697 26.8617 1.30503Z" fill="#0D0D0D"/>
</svg>
