<svg width="36" height="38" viewBox="0 0 36 38" fill="none" xmlns="http://www.w3.org/2000/svg">
<g id="&#240;&#159;&#166;&#134; icon &#34;calendar&#34;">
<path id="Vector" d="M12 0C12.5304 0 13.0391 0.20687 13.4142 0.575101C13.7893 0.943333 14 1.44276 14 1.96352V3.92704H22V1.96352C22 1.44276 22.2107 0.943333 22.5858 0.575101C22.9609 0.20687 23.4696 0 24 0C24.5304 0 25.0391 0.20687 25.4142 0.575101C25.7893 0.943333 26 1.44276 26 1.96352V3.92704H32C33.0609 3.92704 34.0783 4.34078 34.8284 5.07724C35.5786 5.8137 36 6.81256 36 7.85408V33.3798C36 34.4213 35.5786 35.4202 34.8284 36.1567C34.0783 36.8931 33.0609 37.3069 32 37.3069H4C2.93913 37.3069 1.92172 36.8931 1.17157 36.1567C0.421427 35.4202 0 34.4213 0 33.3798V7.85408C0 6.81256 0.421427 5.8137 1.17157 5.07724C1.92172 4.34078 2.93913 3.92704 4 3.92704H10V1.96352C10 1.44276 10.2107 0.943333 10.5858 0.575101C10.9609 0.20687 11.4696 0 12 0ZM10 7.85408H4V13.7446H32V7.85408H26V9.8176C26 10.3384 25.7893 10.8378 25.4142 11.206C25.0391 11.5742 24.5304 11.7811 24 11.7811C23.4696 11.7811 22.9609 11.5742 22.5858 11.206C22.2107 10.8378 22 10.3384 22 9.8176V7.85408H14V9.8176C14 10.3384 13.7893 10.8378 13.4142 11.206C13.0391 11.5742 12.5304 11.7811 12 11.7811C11.4696 11.7811 10.9609 11.5742 10.5858 11.206C10.2107 10.8378 10 10.3384 10 9.8176V7.85408ZM32 17.6717H4V33.3798H32V17.6717Z" />
</g>
</svg>
