<svg width="40" height="38" viewBox="0 0 40 38" fill="none" xmlns="http://www.w3.org/2000/svg">
<g id="&#240;&#159;&#166;&#134; icon &#34;home&#34;">
<path id="Vector" d="M18.6233 0.495351C18.9893 0.176244 19.4618 0 19.9513 0C20.4408 0 20.9133 0.176244 21.2794 0.495351L39.2801 16.2041C39.6563 16.555 39.8789 17.0358 39.9008 17.5449C39.9227 18.054 39.7422 18.5515 39.3974 18.9323C39.0526 19.3131 38.5705 19.5474 38.053 19.5858C37.5355 19.6241 37.0231 19.4634 36.624 19.1377L35.9519 18.5545V33.3797C35.9519 34.4212 35.5305 35.4201 34.7803 36.1566C34.0301 36.8931 33.0127 37.3069 31.9518 37.3069H7.95084C6.88994 37.3069 5.87248 36.8931 5.12231 36.1566C4.37213 35.4201 3.95069 34.4212 3.95069 33.3797V18.5545L3.27866 19.1377C2.87957 19.4634 2.36713 19.6241 1.84961 19.5858C1.33208 19.5474 0.850003 19.3131 0.505203 18.9323C0.160402 18.5515 -0.0201159 18.054 0.00178296 17.5449C0.0236818 17.0358 0.246283 16.555 0.622561 16.2041L18.6233 0.495351ZM7.95084 15.0593V33.3797H13.9511V23.5617C13.9511 23.0409 14.1618 22.5415 14.5369 22.1732C14.912 21.805 15.4207 21.5981 15.9512 21.5981H23.9515C24.4819 21.5981 24.9906 21.805 25.3657 22.1732C25.7408 22.5415 25.9515 23.0409 25.9515 23.5617V33.3797H31.9518V15.0613L19.9513 4.58945L7.95084 15.0593ZM21.9514 33.3797V25.5253H17.9512V33.3797H21.9514Z" />
</g>
</svg>
