<svg width="31" height="38" viewBox="0 0 31 38" fill="none" xmlns="http://www.w3.org/2000/svg">
<g id="&#240;&#159;&#166;&#134; icon &#34;clipboard list&#34;">
<g id="Group">
<path id="Vector" d="M9.50001 17.7207C10.0039 17.7207 10.4872 17.5242 10.8435 17.1744C11.1998 16.8246 11.4 16.3501 11.4 15.8554C11.4 15.3607 11.1998 14.8862 10.8435 14.5364C10.4872 14.1866 10.0039 13.9901 9.50001 13.9901C8.99609 13.9901 8.51282 14.1866 8.1565 14.5364C7.80018 14.8862 7.60001 15.3607 7.60001 15.8554C7.60001 16.3501 7.80018 16.8246 8.1565 17.1744C8.51282 17.5242 8.99609 17.7207 9.50001 17.7207ZM13.3 15.8554C13.3 15.3607 13.5002 14.8862 13.8565 14.5364C14.2128 14.1866 14.6961 13.9901 15.2 13.9901H20.9C21.4039 13.9901 21.8872 14.1866 22.2435 14.5364C22.5998 14.8862 22.8 15.3607 22.8 15.8554C22.8 16.3501 22.5998 16.8246 22.2435 17.1744C21.8872 17.5242 21.4039 17.7207 20.9 17.7207H15.2C14.6961 17.7207 14.2128 17.5242 13.8565 17.1744C13.5002 16.8246 13.3 16.3501 13.3 15.8554ZM15.2 19.5861C14.6961 19.5861 14.2128 19.7826 13.8565 20.1324C13.5002 20.4822 13.3 20.9567 13.3 21.4514C13.3 21.9461 13.5002 22.4206 13.8565 22.7704C14.2128 23.1202 14.6961 23.3168 15.2 23.3168H20.9C21.4039 23.3168 21.8872 23.1202 22.2435 22.7704C22.5998 22.4206 22.8 21.9461 22.8 21.4514C22.8 20.9567 22.5998 20.4822 22.2435 20.1324C21.8872 19.7826 21.4039 19.5861 20.9 19.5861H15.2ZM15.2 25.1821C14.6961 25.1821 14.2128 25.3786 13.8565 25.7285C13.5002 26.0783 13.3 26.5527 13.3 27.0475C13.3 27.5422 13.5002 28.0166 13.8565 28.3665C14.2128 28.7163 14.6961 28.9128 15.2 28.9128H20.9C21.4039 28.9128 21.8872 28.7163 22.2435 28.3665C22.5998 28.0166 22.8 27.5422 22.8 27.0475C22.8 26.5527 22.5998 26.0783 22.2435 25.7285C21.8872 25.3786 21.4039 25.1821 20.9 25.1821H15.2ZM11.4 21.4514C11.4 21.9461 11.1998 22.4206 10.8435 22.7704C10.4872 23.1202 10.0039 23.3168 9.50001 23.3168C8.99609 23.3168 8.51282 23.1202 8.1565 22.7704C7.80018 22.4206 7.60001 21.9461 7.60001 21.4514C7.60001 20.9567 7.80018 20.4822 8.1565 20.1324C8.51282 19.7826 8.99609 19.5861 9.50001 19.5861C10.0039 19.5861 10.4872 19.7826 10.8435 20.1324C11.1998 20.4822 11.4 20.9567 11.4 21.4514ZM9.50001 28.9128C10.0039 28.9128 10.4872 28.7163 10.8435 28.3665C11.1998 28.0166 11.4 27.5422 11.4 27.0475C11.4 26.5527 11.1998 26.0783 10.8435 25.7285C10.4872 25.3786 10.0039 25.1821 9.50001 25.1821C8.99609 25.1821 8.51282 25.3786 8.1565 25.7285C7.80018 26.0783 7.60001 26.5527 7.60001 27.0475C7.60001 27.5422 7.80018 28.0166 8.1565 28.3665C8.51282 28.7163 8.99609 28.9128 9.50001 28.9128Z" />
<path id="Vector_2" d="M9.5 0C8.99609 0 8.51282 0.196527 8.1565 0.546346C7.80018 0.896166 7.6 1.37062 7.6 1.86534H3.8C2.79218 1.86534 1.82563 2.2584 1.11299 2.95804C0.400356 3.65768 0 4.60659 0 5.59603V33.5762C0 34.5656 0.400356 35.5145 1.11299 36.2142C1.82563 36.9138 2.79218 37.3069 3.8 37.3069H26.6C27.6078 37.3069 28.5744 36.9138 29.287 36.2142C29.9996 35.5145 30.4 34.5656 30.4 33.5762V5.59603C30.4 4.60659 29.9996 3.65768 29.287 2.95804C28.5744 2.2584 27.6078 1.86534 26.6 1.86534H22.8C22.8 1.37062 22.5998 0.896166 22.2435 0.546346C21.8872 0.196527 21.4039 0 20.9 0H9.5ZM22.8 5.59603H26.6V33.5762H3.8V5.59603H7.6V7.46137C7.6 7.95609 7.80018 8.43055 8.1565 8.78037C8.51282 9.13019 8.99609 9.32672 9.5 9.32672H20.9C21.4039 9.32672 21.8872 9.13019 22.2435 8.78037C22.5998 8.43055 22.8 7.95609 22.8 7.46137V5.59603ZM11.4 5.59603V3.73069H19V5.59603H11.4Z" />
</g>
</g>
</svg>
