<svg width="26" height="24" viewBox="0 0 26 24" fill="none" xmlns="http://www.w3.org/2000/svg">
<path d="M3.46299 0.471482C3.22167 0.238407 2.89846 0.109438 2.56297 0.112353C2.22748 0.115268 1.90656 0.249835 1.66933 0.487069C1.43209 0.724303 1.29753 1.04522 1.29461 1.38071C1.2917 1.7162 1.42067 2.03941 1.65374 2.28073L4.75531 5.3823C2.92559 6.75907 1.32874 8.65021 0.134946 11.0404C0.0462003 11.218 0 11.4138 0 11.6123C0 11.8108 0.0462003 12.0067 0.134946 12.1843C2.89616 17.708 7.7993 20.569 12.7946 20.569C14.7842 20.569 16.7611 20.1147 18.5908 19.2191L22.1261 22.7531C22.3675 22.9862 22.6907 23.1152 23.0262 23.1123C23.3616 23.1093 23.6826 22.9748 23.9198 22.7375C24.157 22.5003 24.2916 22.1794 24.2945 21.8439C24.2974 21.5084 24.1685 21.1852 23.9354 20.9439L3.46299 0.471482ZM16.6511 17.278C15.3971 17.7681 14.092 18.0099 12.7946 18.0099C8.99566 18.0099 5.11486 15.9371 2.7247 11.6123C3.77008 9.71989 5.10206 8.25995 6.58631 7.21458L9.32961 9.95788C8.98681 10.6744 8.87469 11.4795 9.00873 12.2624C9.14276 13.0453 9.51634 13.7673 10.078 14.3289C10.6396 14.8905 11.3616 15.2641 12.1445 15.3981C12.9273 15.5322 13.7325 15.4201 14.449 15.0773L16.6498 17.278H16.6511ZM21.178 14.0383C21.796 13.3269 22.3629 12.5195 22.8644 11.6123C20.4743 7.28751 16.5948 5.21468 12.7946 5.21468C12.6513 5.21468 12.508 5.21724 12.3646 5.22364L10.0807 2.94097C10.9729 2.75142 11.8825 2.65579 12.7946 2.65563C17.7885 2.65563 22.693 5.51665 25.4542 11.0404C25.5429 11.218 25.5891 11.4138 25.5891 11.6123C25.5891 11.8108 25.5429 12.0067 25.4542 12.1843C24.7984 13.5094 23.9701 14.7421 22.9911 15.8501L21.178 14.0383Z" fill="#0D0D0D" fill-opacity="0.2"/>
</svg>
