<svg width="26" height="19" viewBox="0 0 26 19" fill="none" xmlns="http://www.w3.org/2000/svg">
<path d="M16.634 9.06942C16.634 10.0875 16.2295 11.0639 15.5096 11.7838C14.7897 12.5037 13.8133 12.9081 12.7952 12.9081C11.7772 12.9081 10.8008 12.5037 10.0809 11.7838C9.36098 11.0639 8.95654 10.0875 8.95654 9.06942C8.95654 8.05133 9.36098 7.07494 10.0809 6.35504C10.8008 5.63515 11.7772 5.23071 12.7952 5.23071C13.8133 5.23071 14.7897 5.63515 15.5096 6.35504C16.2295 7.07494 16.634 8.05133 16.634 9.06942Z" fill="#0D0D0D" fill-opacity="0.2"/>
<path d="M25.455 8.49732C22.6937 2.97342 17.7904 0.112305 12.795 0.112305C7.80084 0.112305 2.89626 2.97342 0.134951 8.49732C0.0462019 8.67492 0 8.87074 0 9.06928C0 9.26783 0.0462019 9.46365 0.134951 9.64125C2.89626 15.1651 7.79956 18.0263 12.795 18.0263C17.7892 18.0263 22.6937 15.1651 25.455 9.64125C25.5438 9.46365 25.59 9.26783 25.59 9.06928C25.59 8.87074 25.5438 8.67492 25.455 8.49732ZM12.795 15.4671C8.99596 15.4671 5.11503 13.3942 2.7248 9.06928C5.11503 4.74434 8.99468 2.67144 12.795 2.67144C16.594 2.67144 20.475 4.74434 22.8652 9.06928C20.475 13.3942 16.594 15.4671 12.795 15.4671Z" fill="#0D0D0D" fill-opacity="0.2"/>
</svg>
