<svg width="55" height="55" viewBox="0 0 55 55" fill="none" xmlns="http://www.w3.org/2000/svg">
<g id="&#240;&#159;&#166;&#134; icon &#34;circle add&#34;">
<path id="Vector" d="M27.5 5.5C21.6652 5.5 16.0695 7.81785 11.9437 11.9437C7.81785 16.0695 5.5 21.6652 5.5 27.5C5.5 33.3348 7.81785 38.9305 11.9437 43.0564C16.0695 47.1822 21.6652 49.5 27.5 49.5C33.3348 49.5 38.9305 47.1822 43.0564 43.0564C47.1822 38.9305 49.5 33.3348 49.5 27.5C49.5 21.6652 47.1822 16.0695 43.0564 11.9437C38.9305 7.81785 33.3348 5.5 27.5 5.5ZM0 27.5C0 12.3118 12.3118 0 27.5 0C42.6882 0 55 12.3118 55 27.5C55 42.6882 42.6882 55 27.5 55C12.3118 55 0 42.6882 0 27.5ZM27.5 13.75C28.2293 13.75 28.9288 14.0397 29.4445 14.5555C29.9603 15.0712 30.25 15.7707 30.25 16.5V24.75H38.5C39.2293 24.75 39.9288 25.0397 40.4445 25.5555C40.9603 26.0712 41.25 26.7707 41.25 27.5C41.25 28.2293 40.9603 28.9288 40.4445 29.4445C39.9288 29.9603 39.2293 30.25 38.5 30.25H30.25V38.5C30.25 39.2293 29.9603 39.9288 29.4445 40.4445C28.9288 40.9603 28.2293 41.25 27.5 41.25C26.7707 41.25 26.0712 40.9603 25.5555 40.4445C25.0397 39.9288 24.75 39.2293 24.75 38.5V30.25H16.5C15.7707 30.25 15.0712 29.9603 14.5555 29.4445C14.0397 28.9288 13.75 28.2293 13.75 27.5C13.75 26.7707 14.0397 26.0712 14.5555 25.5555C15.0712 25.0397 15.7707 24.75 16.5 24.75H24.75V16.5C24.75 15.7707 25.0397 15.0712 25.5555 14.5555C26.0712 14.0397 26.7707 13.75 27.5 13.75Z"/>
</g>
</svg>
