<svg width="35" height="38" viewBox="0 0 35 38" fill="none" xmlns="http://www.w3.org/2000/svg">
<path d="M17.1 3.73069C15.0844 3.73069 13.1513 4.51679 11.726 5.91607C10.3007 7.31535 9.5 9.21318 9.5 11.1921C9.5 13.1709 10.3007 15.0688 11.726 16.468C13.1513 17.8673 15.0844 18.6534 17.1 18.6534C19.1156 18.6534 21.0487 17.8673 22.474 16.468C23.8993 15.0688 24.7 13.1709 24.7 11.1921C24.7 9.21318 23.8993 7.31535 22.474 5.91607C21.0487 4.51679 19.1156 3.73069 17.1 3.73069ZM5.7 11.1921C5.7 8.22374 6.90107 5.377 9.03898 3.27808C11.1769 1.17916 14.0765 0 17.1 0C20.1235 0 23.0231 1.17916 25.161 3.27808C27.2989 5.377 28.5 8.22374 28.5 11.1921C28.5 14.1604 27.2989 17.0071 25.161 19.106C23.0231 21.205 20.1235 22.3841 17.1 22.3841C14.0765 22.3841 11.1769 21.205 9.03898 19.106C6.90107 17.0071 5.7 14.1604 5.7 11.1921ZM9.5 29.8455C7.98827 29.8455 6.53845 30.4351 5.46949 31.4845C4.40053 32.534 3.8 33.9574 3.8 35.4415C3.8 35.9362 3.59982 36.4107 3.2435 36.7605C2.88718 37.1103 2.40391 37.3069 1.9 37.3069C1.39609 37.3069 0.912816 37.1103 0.556497 36.7605C0.200178 36.4107 0 35.9362 0 35.4415C0 32.9679 1.00089 30.5956 2.78249 28.8465C4.56408 27.0974 6.98044 26.1148 9.5 26.1148H24.7C27.2196 26.1148 29.6359 27.0974 31.4175 28.8465C33.1991 30.5956 34.2 32.9679 34.2 35.4415C34.2 35.9362 33.9998 36.4107 33.6435 36.7605C33.2872 37.1103 32.8039 37.3069 32.3 37.3069C31.7961 37.3069 31.3128 37.1103 30.9565 36.7605C30.6002 36.4107 30.4 35.9362 30.4 35.4415C30.4 33.9574 29.7995 32.534 28.7305 31.4845C27.6616 30.4351 26.2117 29.8455 24.7 29.8455H9.5Z"/>
</svg>
