<svg width="45" height="35" viewBox="0 0 45 35" fill="none" xmlns="http://www.w3.org/2000/svg">
<g id="&#240;&#159;&#166;&#134; icon &#34;book&#34;">
<path id="Vector" d="M4.45617 5.75991C4.7681 5.63741 5.14242 5.50179 5.5769 5.36398C7.73682 4.69539 9.98978 4.3618 12.2545 4.37526C14.5192 4.3618 16.7721 4.69539 18.932 5.36398C19.3665 5.50179 19.7408 5.63741 20.0528 5.75991V29.5593C17.5254 28.8032 14.8965 28.425 12.2545 28.4372C9.00147 28.4372 6.35227 28.9796 4.45617 29.5593V5.75991ZM22.2809 1.93626C21.6346 1.65746 20.9742 1.41141 20.3023 1.19909C17.6996 0.390685 14.9843 -0.0137595 12.2545 0.000369182C8.85441 0.000369182 6.1161 0.593166 4.20663 1.19909C3.4464 1.43834 2.7016 1.72249 1.97631 2.05C1.70672 2.1724 1.44142 2.30372 1.18089 2.44375L1.12518 2.47437L1.10513 2.48531L1.09845 2.48968C1.09399 2.49406 0.545881 2.81124 1.09176 2.49406C0.75916 2.68766 0.483602 2.96291 0.292182 3.29275C0.100761 3.62258 6.74389e-05 3.99564 0 4.37526V32.812C6.85825e-05 33.1981 0.104225 33.5773 0.301888 33.9111C0.499551 34.2449 0.783679 34.5214 1.12541 34.7124C1.46714 34.9035 1.85429 35.0024 2.24754 34.999C2.6408 34.9957 3.02613 34.8902 3.36441 34.6932L3.35327 34.6998L3.35995 34.6976L3.36218 34.6954L3.44462 34.6517C3.52706 34.6079 3.66297 34.5423 3.85013 34.4548C4.22891 34.2842 4.80821 34.0436 5.5769 33.7986C7.73694 33.1307 9.9899 32.7979 12.2545 32.812C14.519 32.7979 16.772 33.1307 18.932 33.7986C19.5205 33.9831 20.0972 34.2022 20.6588 34.4548C20.827 34.5314 20.9927 34.6131 21.1557 34.6998M21.1557 34.6998L21.149 34.6976L21.1468 34.6954C21.8464 35.1001 22.7153 35.1001 23.415 34.6954L23.4974 34.6517C23.5798 34.6079 23.7157 34.5423 23.9029 34.4548C24.4645 34.2022 25.0412 33.9831 25.6297 33.7986C27.7897 33.1307 30.0427 32.7979 32.3072 32.812C34.5718 32.7979 36.8248 33.1307 38.9848 33.7986C39.5733 33.9831 40.1499 34.2022 40.7116 34.4548C40.8767 34.5301 41.0394 34.6103 41.1995 34.6954C41.5379 34.8919 41.9232 34.9969 42.3163 34.9999C42.7095 35.0029 43.0964 34.9038 43.4378 34.7125C43.7793 34.5212 44.0631 34.2447 44.2605 33.9109C44.4579 33.5771 44.5618 33.198 44.5617 32.812V4.37526C44.5617 3.99564 44.461 3.62258 44.2695 3.29275C44.0781 2.96291 43.8026 2.68766 43.47 2.49406L43.4655 2.49187L43.4566 2.48531L43.4343 2.47437L43.3808 2.44375C43.1203 2.30369 42.855 2.17237 42.5854 2.05C41.8608 1.72262 41.1168 1.43846 40.3573 1.19909C37.7539 0.39046 35.0378 -0.0139874 32.3072 0.000369182C28.9094 0.000369182 26.1689 0.593166 24.2594 1.19909C23.5873 1.41088 22.9269 1.65693 22.2809 1.93626M40.1055 5.75991V29.5593C37.5782 28.8032 34.9493 28.425 32.3072 28.4372C29.0542 28.4372 26.405 28.9796 24.5089 29.5593V5.75991C24.8209 5.63741 25.1952 5.50179 25.6297 5.36398C27.7896 4.69539 30.0426 4.3618 32.3072 4.37526C34.5719 4.3618 36.8249 4.69539 38.9848 5.36398C39.4193 5.50179 39.7936 5.63741 40.1055 5.75991ZM41.1973 6.25865L41.2085 6.26302H41.2062L41.1973 6.25865ZM41.1995 34.6954L41.2062 34.6998L41.2018 34.6954"/>
</g>
</svg>
