<svg width="1627" height="360" viewBox="0 0 1627 360" fill="none" xmlns="http://www.w3.org/2000/svg">
<g clip-path="url(#clip0_20_2)">
<path d="M88.4197 178.806C100.623 178.806 111.374 177.353 120.672 174.447C130.116 171.396 137.961 167.183 144.208 161.808C150.601 156.287 155.395 149.749 158.591 142.195C161.787 134.64 163.385 126.286 163.385 117.133C163.385 98.5373 157.284 84.5175 145.08 75.0742C132.876 65.6308 114.571 60.9091 90.163 60.9091H43.9632V178.806H88.4197ZM232.685 339.852H195.202C187.502 339.852 181.836 336.873 178.204 330.917L97.1366 219.34C94.6668 215.853 91.9791 213.383 89.0734 211.93C86.3131 210.332 81.9546 209.533 75.998 209.533H43.9632V339.852H1.90392V27.5668H90.163C109.921 27.5668 126.992 29.6007 141.375 33.6686C155.758 37.5913 167.599 43.3299 176.897 50.8846C186.34 58.4393 193.314 67.5921 197.817 78.343C202.321 88.9486 204.573 100.862 204.573 114.083C204.573 125.124 202.83 135.439 199.343 145.028C195.856 154.616 190.771 163.261 184.088 170.961C177.55 178.515 169.487 184.98 159.899 190.356C150.455 195.731 139.704 199.799 127.646 202.56C133.021 205.611 137.67 210.042 141.593 215.853L232.685 339.852ZM367.342 189.484C379.4 189.484 390.006 187.886 399.159 184.69C408.457 181.494 416.229 177.063 422.476 171.396C428.869 165.585 433.663 158.684 436.859 150.694C440.056 142.703 441.654 133.914 441.654 124.325C441.654 104.421 435.479 88.876 423.13 77.6893C410.926 66.5025 392.33 60.9091 367.342 60.9091H317.219V189.484H367.342ZM367.342 27.5668C387.1 27.5668 404.243 29.8913 418.772 34.5404C433.445 39.0441 445.576 45.5092 455.165 53.9356C464.754 62.362 471.872 72.5317 476.521 84.4449C481.316 96.3581 483.713 109.651 483.713 124.325C483.713 138.853 481.171 152.147 476.086 164.205C471.001 176.263 463.519 186.651 453.639 195.368C443.906 204.085 431.774 210.913 417.246 215.853C402.863 220.647 386.228 223.044 367.342 223.044H317.219V339.852H275.16V27.5668H367.342ZM790.587 189.702V309.56C774.897 320.892 758.116 329.391 740.247 335.057C722.522 340.578 703.054 343.338 681.843 343.338C656.709 343.338 634.045 339.488 613.851 331.788C593.657 323.943 576.368 313.047 561.985 299.1C547.747 285.007 536.779 268.155 529.079 248.541C521.379 228.928 517.529 207.354 517.529 183.818C517.529 159.992 521.233 138.272 528.643 118.659C536.197 99.0458 546.876 82.2657 560.678 68.3185C574.479 54.2261 591.259 43.3299 611.018 35.63C630.776 27.93 652.859 24.08 677.267 24.08C689.616 24.08 701.093 25.0243 711.699 26.913C722.304 28.6564 732.111 31.2715 741.118 34.7583C750.126 38.0998 758.48 42.2403 766.18 47.1799C773.88 51.9743 781.071 57.4224 787.754 63.5242L775.768 82.7015C773.88 85.6072 771.41 87.4958 768.359 88.3675C765.453 89.0939 762.184 88.3675 758.552 86.1883C755.066 84.1543 751.07 81.6845 746.566 78.7789C742.063 75.8732 736.542 73.1129 730.004 70.4978C723.612 67.7374 715.985 65.4129 707.122 63.5242C698.405 61.6356 688.018 60.6912 675.959 60.6912C658.38 60.6912 642.472 63.5969 628.234 69.4082C613.996 75.0742 601.865 83.2826 591.841 94.0335C581.816 104.639 574.116 117.569 568.741 132.824C563.365 147.933 560.678 164.931 560.678 183.818C560.678 203.431 563.438 221.01 568.959 236.556C574.625 251.956 582.615 265.104 592.93 276C603.391 286.751 616.03 294.959 630.849 300.625C645.668 306.291 662.303 309.124 680.754 309.124C695.282 309.124 708.139 307.526 719.326 304.33C730.658 300.988 741.7 296.412 752.45 290.601V221.955H703.853C701.093 221.955 698.841 221.156 697.098 219.558C695.5 217.96 694.701 215.998 694.701 213.674V189.702H790.587Z" fill="black"/>
<path d="M120.672 174.447L121.236 176.25C121.242 176.249 121.247 176.247 121.253 176.245L120.672 174.447ZM144.208 161.808L145.44 163.24L145.443 163.238L144.208 161.808ZM158.591 142.195L160.331 142.931H160.331L158.591 142.195ZM145.08 75.0742L143.924 76.5682L145.08 75.0742ZM43.9632 60.9091V59.0201C42.9199 59.0201 42.0741 59.8658 42.0741 60.9091H43.9632ZM43.9632 178.806H42.0741C42.0741 179.849 42.9199 180.695 43.9632 180.695V178.806ZM232.685 339.852V341.741C233.397 341.741 234.049 341.34 234.371 340.705C234.692 340.069 234.629 339.307 234.208 338.733L232.685 339.852ZM178.204 330.917L179.817 329.933C179.791 329.89 179.762 329.847 179.733 329.806L178.204 330.917ZM97.1366 219.34L95.5951 220.432C95.5995 220.438 95.6039 220.444 95.6083 220.45L97.1366 219.34ZM89.0734 211.93L88.1269 213.565C88.1603 213.584 88.1942 213.603 88.2286 213.62L89.0734 211.93ZM43.9632 209.533V207.644C42.9199 207.644 42.0741 208.49 42.0741 209.533H43.9632ZM43.9632 339.852V341.741C45.0065 341.741 45.8523 340.895 45.8523 339.852H43.9632ZM1.90392 339.852H0.0148582C0.0148582 340.895 0.860619 341.741 1.90392 341.741V339.852ZM1.90392 27.5668V25.6777C0.860619 25.6777 0.0148582 26.5235 0.0148582 27.5668H1.90392ZM141.375 33.6686L140.861 35.4864C140.867 35.488 140.872 35.4896 140.878 35.4911L141.375 33.6686ZM176.897 50.8846L175.705 52.3508C175.709 52.3538 175.713 52.3568 175.717 52.3597L176.897 50.8846ZM197.817 78.343L196.075 79.0729L196.079 79.0814L197.817 78.343ZM199.343 145.028L201.118 145.673L199.343 145.028ZM184.088 170.961L182.662 169.722L182.66 169.724L184.088 170.961ZM159.899 190.356L158.975 188.708L158.964 188.714L159.899 190.356ZM127.646 202.56L127.224 200.718C126.465 200.892 125.89 201.514 125.777 202.286C125.664 203.057 126.036 203.818 126.713 204.202L127.646 202.56ZM141.593 215.853L140.027 216.91C140.041 216.931 140.056 216.951 140.071 216.971L141.593 215.853ZM88.4197 180.695C100.768 180.695 111.716 179.225 121.236 176.25L120.109 172.644C111.033 175.481 100.478 176.917 88.4197 176.917V180.695ZM121.253 176.245C130.888 173.132 138.968 168.809 145.44 163.24L142.976 160.376C136.954 165.557 129.343 169.661 120.092 172.65L121.253 176.245ZM145.443 163.238C152.048 157.533 157.018 150.76 160.331 142.931L156.851 141.459C153.771 148.738 149.153 155.041 142.973 160.378L145.443 163.238ZM160.331 142.931C163.636 135.118 165.274 126.51 165.274 117.133H161.496C161.496 126.063 159.938 134.162 156.851 141.459L160.331 142.931ZM165.274 117.133C165.274 98.0866 158.998 83.4559 146.236 73.5802L143.924 76.5682C155.569 85.5791 161.496 98.988 161.496 117.133H165.274ZM146.236 73.5802C133.558 63.7697 114.762 59.0201 90.163 59.0201V62.7982C114.379 62.7982 132.194 67.4919 143.924 76.5682L146.236 73.5802ZM90.163 59.0201H43.9632V62.7982H90.163V59.0201ZM42.0741 60.9091V178.806H45.8523V60.9091H42.0741ZM43.9632 180.695H88.4197V176.917H43.9632V180.695ZM232.685 337.962H195.202V341.741H232.685V337.962ZM195.202 337.962C188.079 337.962 183.066 335.261 179.817 329.933L176.591 331.9C180.607 338.486 186.925 341.741 195.202 341.741V337.962ZM179.733 329.806L98.6649 218.229L95.6083 220.45L176.676 332.027L179.733 329.806ZM98.6781 218.248C96.0834 214.585 93.1755 211.869 89.9182 210.241L88.2286 213.62C90.7826 214.897 93.2502 217.121 95.5951 220.432L98.6781 218.248ZM90.0199 210.295C86.8167 208.441 82.0438 207.644 75.998 207.644V211.422C81.8653 211.422 85.8094 212.223 88.1269 213.565L90.0199 210.295ZM75.998 207.644H43.9632V211.422H75.998V207.644ZM42.0741 209.533V339.852H45.8523V209.533H42.0741ZM43.9632 337.962H1.90392V341.741H43.9632V337.962ZM3.79298 339.852V27.5668H0.0148582V339.852H3.79298ZM1.90392 29.4558H90.163V25.6777H1.90392V29.4558ZM90.163 29.4558C109.8 29.4558 126.689 31.4782 140.861 35.4864L141.889 31.8509C127.295 27.7233 110.043 25.6777 90.163 25.6777V29.4558ZM140.878 35.4911C155.068 39.361 166.655 44.9971 175.705 52.3508L178.088 49.4185C168.542 41.6627 156.449 35.8216 141.872 31.8462L140.878 35.4911ZM175.717 52.3597C184.923 59.7247 191.698 68.6247 196.075 79.0729L199.56 77.6131C194.929 66.5595 187.757 57.154 178.077 49.4095L175.717 52.3597ZM196.079 79.0814C200.47 89.4216 202.684 101.078 202.684 114.083H206.462C206.462 100.645 204.173 88.4757 199.556 77.6046L196.079 79.0814ZM202.684 114.083C202.684 124.922 200.973 135.017 197.568 144.382L201.118 145.673C204.686 135.861 206.462 125.326 206.462 114.083H202.684ZM197.568 144.382C194.16 153.754 189.193 162.197 182.662 169.722L185.515 172.199C192.349 164.324 197.552 155.479 201.118 145.673L197.568 144.382ZM182.66 169.724C176.279 177.098 168.392 183.429 158.975 188.708L160.822 192.004C170.583 186.532 178.822 179.933 185.517 172.197L182.66 169.724ZM158.964 188.714C149.702 193.987 139.127 197.993 127.224 200.718L128.067 204.401C140.281 201.605 151.209 197.476 160.833 191.998L158.964 188.714ZM126.713 204.202C131.803 207.091 136.246 211.307 140.027 216.91L143.159 214.796C139.095 208.776 134.239 204.13 128.578 200.917L126.713 204.202ZM140.071 216.971L231.163 340.97L234.208 338.733L143.115 214.735L140.071 216.971ZM399.159 184.69L398.544 182.903L398.536 182.906L399.159 184.69ZM422.476 171.396L423.745 172.796L423.747 172.794L422.476 171.396ZM436.859 150.694L438.613 151.395L436.859 150.694ZM423.13 77.6893L421.854 79.0818L421.862 79.0893L423.13 77.6893ZM317.219 60.9091V59.0201C316.176 59.0201 315.33 59.8658 315.33 60.9091H317.219ZM317.219 189.484H315.33C315.33 190.527 316.176 191.373 317.219 191.373V189.484ZM418.772 34.5404L418.196 36.3395C418.203 36.3418 418.21 36.3441 418.217 36.3463L418.772 34.5404ZM455.165 53.9356L453.918 55.3546L455.165 53.9356ZM476.521 84.4449L474.762 85.1317C474.764 85.1378 474.766 85.144 474.769 85.1502L476.521 84.4449ZM476.086 164.205L474.345 163.471L476.086 164.205ZM453.639 195.368L452.39 193.952L452.379 193.961L453.639 195.368ZM417.246 215.853L417.844 217.645L417.854 217.641L417.246 215.853ZM317.219 223.044V221.155C316.176 221.155 315.33 222.001 315.33 223.044H317.219ZM317.219 339.852V341.741C318.262 341.741 319.108 340.895 319.108 339.852H317.219ZM275.16 339.852H273.271C273.271 340.895 274.117 341.741 275.16 341.741V339.852ZM275.16 27.5668V25.6777C274.117 25.6777 273.271 26.5235 273.271 27.5668H275.16ZM367.342 191.373C379.563 191.373 390.386 189.754 399.781 186.473L398.536 182.906C389.625 186.018 379.238 187.595 367.342 187.595V191.373ZM399.773 186.476C409.273 183.21 417.28 178.66 423.745 172.796L421.207 169.997C415.179 175.465 407.64 179.777 398.544 182.903L399.773 186.476ZM423.747 172.794C430.35 166.791 435.31 159.653 438.613 151.395L435.105 149.992C432.016 157.716 427.387 164.379 421.206 169.999L423.747 172.794ZM438.613 151.395C441.908 143.158 443.543 134.127 443.543 124.325H439.765C439.765 133.701 438.203 142.249 435.105 149.992L438.613 151.395ZM443.543 124.325C443.543 104.001 437.219 87.9035 424.398 76.2892L421.862 79.0893C433.739 89.8485 439.765 104.842 439.765 124.325H443.543ZM424.407 76.2967C411.714 64.6614 392.569 59.0201 367.342 59.0201V62.7982C392.092 62.7982 410.139 68.3436 421.854 79.0818L424.407 76.2967ZM367.342 59.0201H317.219V62.7982H367.342V59.0201ZM315.33 60.9091V189.484H319.108V60.9091H315.33ZM317.219 191.373H367.342V187.595H317.219V191.373ZM367.342 29.4558C386.959 29.4558 403.899 31.7646 418.196 36.3395L419.347 32.7412C404.587 28.018 387.241 25.6777 367.342 25.6777V29.4558ZM418.217 36.3463C432.686 40.7871 444.567 47.1367 453.918 55.3546L456.412 52.5166C446.586 43.8816 434.204 37.3011 419.326 32.7345L418.217 36.3463ZM453.918 55.3546C463.279 63.581 470.222 73.4995 474.762 85.1317L478.281 83.7581C473.523 71.5639 466.228 61.1429 456.412 52.5166L453.918 55.3546ZM474.769 85.1502C479.461 96.8095 481.824 109.859 481.824 124.325H485.602C485.602 109.444 483.17 95.9066 478.274 83.7396L474.769 85.1502ZM481.824 124.325C481.824 138.629 479.322 151.669 474.345 163.471L477.826 164.939C483.019 152.624 485.602 139.077 485.602 124.325H481.824ZM474.345 163.471C469.371 175.266 462.058 185.421 452.39 193.952L454.889 196.785C464.98 187.881 472.63 177.261 477.826 164.939L474.345 163.471ZM452.379 193.961C442.865 202.481 430.967 209.193 416.638 214.064L417.854 217.641C432.582 212.634 444.946 205.689 454.9 196.775L452.379 193.961ZM416.649 214.061C402.499 218.777 386.073 221.155 367.342 221.155V224.933C386.384 224.933 403.227 222.517 417.844 217.645L416.649 214.061ZM367.342 221.155H317.219V224.933H367.342V221.155ZM315.33 223.044V339.852H319.108V223.044H315.33ZM317.219 337.962H275.16V341.741H317.219V337.962ZM277.049 339.852V27.5668H273.271V339.852H277.049ZM275.16 29.4558H367.342V25.6777H275.16V29.4558ZM790.587 189.702H792.476C792.476 188.659 791.63 187.813 790.587 187.813V189.702ZM790.587 309.56L791.693 311.092C792.185 310.736 792.476 310.167 792.476 309.56H790.587ZM740.247 335.057L740.808 336.861L740.818 336.858L740.247 335.057ZM613.851 331.788L613.167 333.549L613.178 333.553L613.851 331.788ZM561.985 299.1L560.656 300.442C560.661 300.447 560.665 300.451 560.67 300.456L561.985 299.1ZM529.079 248.542L530.837 247.851L529.079 248.542ZM528.643 118.659L526.88 117.98L526.876 117.991L528.643 118.659ZM560.677 68.3185L562.02 69.6473L562.027 69.6403L560.677 68.3185ZM611.018 35.63L611.704 37.3901L611.018 35.63ZM711.699 26.913L711.367 28.7728C711.376 28.7743 711.384 28.7757 711.392 28.7771L711.699 26.913ZM741.118 34.7583L740.436 36.5199C740.445 36.5231 740.453 36.5263 740.461 36.5294L741.118 34.7583ZM766.18 47.1799L765.16 48.7699C765.167 48.7745 765.174 48.7791 765.181 48.7836L766.18 47.1799ZM787.754 63.5242L789.356 64.5254C789.839 63.7522 789.701 62.744 789.028 62.1292L787.754 63.5242ZM775.768 82.7015L777.352 83.731C777.358 83.7216 777.364 83.7122 777.37 83.7027L775.768 82.7015ZM768.359 88.3675L768.817 90.2002C768.837 90.1951 768.858 90.1897 768.878 90.1839L768.359 88.3675ZM758.552 86.1883L759.524 84.5684C759.518 84.5644 759.511 84.5605 759.504 84.5566L758.552 86.1883ZM746.566 78.7789L747.591 77.1915H747.591L746.566 78.7789ZM730.004 70.4978L729.255 72.232C729.271 72.2388 729.287 72.2454 729.303 72.2517L730.004 70.4978ZM707.122 63.5242L706.722 65.3705L706.729 65.3718L707.122 63.5242ZM628.234 69.4082L628.932 71.1633C628.938 71.1613 628.943 71.1592 628.948 71.1571L628.234 69.4082ZM591.841 94.0336L593.214 95.3312L593.222 95.3218L591.841 94.0336ZM568.741 132.824L570.52 133.457L570.522 133.452L568.741 132.824ZM568.959 236.556L567.178 237.188C567.181 237.195 567.183 237.201 567.186 237.208L568.959 236.556ZM592.93 276L591.558 277.299C591.564 277.305 591.57 277.311 591.576 277.317L592.93 276ZM719.326 304.33L719.845 306.146C719.85 306.145 719.855 306.143 719.86 306.142L719.326 304.33ZM752.45 290.601L753.349 292.263C753.959 291.933 754.339 291.295 754.339 290.601H752.45ZM752.45 221.955H754.339C754.339 220.911 753.494 220.066 752.45 220.066V221.955ZM697.098 219.558L695.762 220.893C695.781 220.913 695.801 220.932 695.821 220.95L697.098 219.558ZM694.701 189.702V187.813C693.657 187.813 692.812 188.659 692.812 189.702H694.701ZM788.698 189.702V309.56H792.476V189.702H788.698ZM789.481 308.029C773.948 319.247 757.348 327.653 739.676 333.257L740.818 336.858C758.885 331.129 775.845 322.537 791.693 311.092L789.481 308.029ZM739.685 333.254C722.166 338.71 702.891 341.449 681.843 341.449V345.227C703.218 345.227 722.878 342.446 740.808 336.861L739.685 333.254ZM681.843 341.449C656.902 341.449 634.471 337.629 614.524 330.023L613.178 333.553C633.619 341.348 656.516 345.227 681.843 345.227V341.449ZM614.535 330.028C594.557 322.266 577.488 311.501 563.3 297.744L560.67 300.456C575.248 314.593 592.757 325.62 613.167 333.549L614.535 330.028ZM563.314 297.757C549.273 283.859 538.446 267.232 530.837 247.851L527.32 249.232C535.111 269.077 546.222 286.155 560.656 300.442L563.314 297.757ZM530.837 247.851C523.233 228.482 519.418 207.145 519.418 183.818H515.64C515.64 207.563 519.524 229.375 527.32 249.232L530.837 247.851ZM519.418 183.818C519.418 160.189 523.091 138.699 530.41 119.327L526.876 117.991C519.375 137.845 515.64 159.795 515.64 183.818H519.418ZM530.406 119.338C537.873 99.9505 548.415 83.3962 562.02 69.6473L559.335 66.9898C545.337 81.1351 534.522 98.1411 526.88 117.98L530.406 119.338ZM562.027 69.6403C575.628 55.7536 592.176 45.0001 611.704 37.3901L610.332 33.8699C590.343 41.6598 573.331 52.6987 559.328 66.9967L562.027 69.6403ZM611.704 37.3901C631.213 29.7872 653.059 25.9691 677.267 25.9691V22.1909C652.66 22.1909 630.339 26.0728 610.332 33.8699L611.704 37.3901ZM677.267 25.9691C689.52 25.9691 700.886 26.9062 711.367 28.7728L712.03 25.0532C701.3 23.1425 689.711 22.1909 677.267 22.1909V25.9691ZM711.392 28.7771C721.884 30.5017 731.563 33.0851 740.436 36.5199L741.8 32.9966C732.659 29.4579 722.725 26.8111 712.005 25.049L711.392 28.7771ZM740.461 36.5294C749.348 39.8261 757.579 43.9071 765.16 48.7699L767.2 45.5899C759.38 40.5735 750.904 36.3735 741.775 32.9872L740.461 36.5294ZM765.181 48.7836C772.783 53.517 779.883 58.8954 786.48 64.9193L789.028 62.1292C782.259 55.9493 774.976 50.4315 767.178 45.5763L765.181 48.7836ZM786.152 62.523L774.166 81.7003L777.37 83.7027L789.356 64.5254L786.152 62.523ZM774.184 81.672C772.519 84.2335 770.411 85.8166 767.84 86.5511L768.878 90.1839C772.409 89.1751 775.24 86.9809 777.352 83.731L774.184 81.672ZM767.901 86.5349C765.653 87.0969 762.907 86.5979 759.524 84.5684L757.58 87.8082C761.462 90.1372 765.254 91.091 768.817 90.2002L767.901 86.5349ZM759.504 84.5566C756.048 82.5406 752.078 80.0864 747.591 77.1915L745.542 80.3662C750.063 83.2826 754.083 85.7681 757.6 87.82L759.504 84.5566ZM747.591 77.1915C742.959 74.2034 737.323 71.3908 730.706 68.7438L729.303 72.2517C735.761 74.8349 741.167 77.5431 745.542 80.3662L747.591 77.1915ZM730.753 68.7635C724.218 65.9416 716.466 63.584 707.516 61.6767L706.729 65.3718C715.503 67.2418 723.005 69.5332 729.255 72.232L730.753 68.7635ZM707.522 61.678C698.637 59.7529 688.108 58.8022 675.959 58.8022V62.5803C687.927 62.5803 698.173 63.5182 706.722 65.3704L707.522 61.678ZM675.959 58.8022C658.17 58.8022 642.014 61.7431 627.52 67.6592L628.948 71.1571C642.929 65.4506 658.59 62.5803 675.959 62.5803V58.8022ZM627.535 67.653C613.05 73.4177 600.682 81.7814 590.459 92.7453L593.222 95.3218C603.048 84.7838 614.943 76.7306 628.932 71.1633L627.535 67.653ZM590.468 92.7359C580.243 103.554 572.413 116.719 566.959 132.196L570.522 133.452C575.82 118.419 583.389 105.725 593.213 95.3312L590.468 92.7359ZM566.961 132.191C561.502 147.536 558.788 164.753 558.788 183.818H562.567C562.567 165.11 565.229 148.331 570.52 133.457L566.961 132.191ZM558.788 183.818C558.788 203.607 561.573 221.405 567.178 237.188L570.739 235.923C565.302 220.616 562.567 203.256 562.567 183.818H558.788ZM567.186 237.208C572.932 252.826 581.051 266.2 591.558 277.299L594.302 274.701C584.179 264.008 576.317 251.086 570.732 235.903L567.186 237.208ZM591.576 277.317C602.239 288.276 615.114 296.632 630.174 302.39L631.524 298.861C616.946 293.287 604.542 285.226 594.284 274.683L591.576 277.317ZM630.174 302.39C645.241 308.15 662.109 311.013 680.754 311.013V307.235C662.496 307.235 646.095 304.432 631.524 298.861L630.174 302.39ZM680.754 311.013C695.416 311.013 708.454 309.401 719.845 306.146L718.807 302.514C707.825 305.651 695.148 307.235 680.754 307.235V311.013ZM719.86 306.142C731.323 302.762 742.486 298.134 753.349 292.263L751.552 288.939C740.913 294.69 729.993 299.215 718.792 302.518L719.86 306.142ZM754.339 290.601V221.955H750.561V290.601H754.339ZM752.45 220.066H703.853V223.844H752.45V220.066ZM703.853 220.066C701.482 220.066 699.712 219.391 698.374 218.165L695.821 220.95C697.971 222.92 700.705 223.844 703.853 223.844V220.066ZM698.434 218.222C697.201 216.989 696.59 215.513 696.59 213.674H692.812C692.812 216.483 693.799 218.93 695.762 220.893L698.434 218.222ZM696.59 213.674V189.702H692.812V213.674H696.59ZM694.701 191.591H790.587V187.813H694.701V191.591Z" fill="black"/>
<path d="M1180.69 344.405C1171.75 344.405 1164.86 341.909 1160.02 336.918C1155.25 331.927 1152.86 324.738 1152.86 315.351V246.069H1139.23C1138.04 246.069 1137.03 245.734 1136.21 245.063C1135.39 244.318 1134.98 243.201 1134.98 241.711V233.777L1153.53 231.43L1158.12 196.454C1158.34 195.337 1158.82 194.443 1159.57 193.772C1160.39 193.027 1161.43 192.655 1162.7 192.655H1172.75V231.654H1205.5V246.069H1172.75V314.01C1172.75 318.778 1173.91 322.317 1176.22 324.626C1178.53 326.936 1181.51 328.09 1185.16 328.09C1187.24 328.09 1189.03 327.83 1190.52 327.308C1192.09 326.712 1193.43 326.079 1194.54 325.408C1195.66 324.738 1196.59 324.142 1197.34 323.62C1198.16 323.024 1198.87 322.726 1199.46 322.726C1200.5 322.726 1201.44 323.36 1202.25 324.626L1208.07 334.125C1204.64 337.328 1200.5 339.861 1195.66 341.723C1190.82 343.511 1185.83 344.405 1180.69 344.405ZM1246.04 244.505C1250.88 239.364 1256.24 235.267 1262.13 232.213C1268.01 229.158 1274.79 227.631 1282.47 227.631C1288.65 227.631 1294.09 228.674 1298.78 230.76C1303.55 232.771 1307.5 235.677 1310.63 239.476C1313.83 243.201 1316.25 247.708 1317.89 252.997C1319.53 258.287 1320.35 264.135 1320.35 270.541V342.617H1300.34V270.541C1300.34 261.974 1298.37 255.344 1294.42 250.651C1290.55 245.883 1284.63 243.499 1276.65 243.499C1270.77 243.499 1265.26 244.914 1260.12 247.745C1255.05 250.576 1250.36 254.413 1246.04 259.255V342.617H1226.03V178.016H1246.04V244.505ZM1426.42 273.67C1426.42 269.051 1425.75 264.842 1424.41 261.043C1423.14 257.169 1421.24 253.854 1418.71 251.098C1416.25 248.267 1413.23 246.106 1409.66 244.616C1406.08 243.052 1402.02 242.27 1397.48 242.27C1387.94 242.27 1380.38 245.063 1374.79 250.651C1369.28 256.163 1365.85 263.837 1364.51 273.67H1426.42ZM1442.51 326.749C1440.05 329.729 1437.11 332.337 1433.68 334.572C1430.26 336.732 1426.57 338.52 1422.62 339.935C1418.75 341.351 1414.72 342.394 1410.55 343.064C1406.38 343.809 1402.25 344.182 1398.15 344.182C1390.33 344.182 1383.1 342.878 1376.47 340.271C1369.91 337.589 1364.21 333.715 1359.37 328.649C1354.6 323.509 1350.88 317.176 1348.2 309.652C1345.52 302.128 1344.18 293.486 1344.18 283.727C1344.18 275.831 1345.37 268.455 1347.75 261.602C1350.21 254.748 1353.71 248.825 1358.26 243.834C1362.8 238.768 1368.35 234.82 1374.91 231.989C1381.46 229.084 1388.84 227.631 1397.03 227.631C1403.81 227.631 1410.07 228.786 1415.8 231.095C1421.61 233.33 1426.61 236.608 1430.78 240.929C1435.02 245.175 1438.34 250.464 1440.72 256.797C1443.11 263.054 1444.3 270.206 1444.3 278.252C1444.3 281.381 1443.96 283.467 1443.29 284.51C1442.62 285.552 1441.36 286.074 1439.49 286.074H1363.84C1364.07 293.226 1365.03 299.446 1366.75 304.735C1368.54 310.025 1370.99 314.457 1374.12 318.033C1377.25 321.535 1380.98 324.179 1385.3 325.967C1389.62 327.681 1394.46 328.537 1399.82 328.537C1404.82 328.537 1409.1 327.979 1412.68 326.861C1416.33 325.669 1419.45 324.403 1422.06 323.062C1424.67 321.721 1426.83 320.492 1428.54 319.374C1430.33 318.182 1431.86 317.586 1433.12 317.586C1434.76 317.586 1436.03 318.219 1436.92 319.486L1442.51 326.749ZM1468.73 342.617V229.419H1480.69C1483.52 229.419 1485.27 230.797 1485.94 233.554L1487.39 245.175C1491.56 240.035 1496.26 235.826 1501.47 232.548C1506.69 229.27 1512.72 227.631 1519.58 227.631C1527.17 227.631 1533.32 229.754 1538.01 234.001C1542.78 238.247 1546.21 243.983 1548.29 251.209C1549.93 247.112 1552.02 243.573 1554.55 240.594C1557.16 237.614 1560.06 235.155 1563.27 233.218C1566.47 231.281 1569.86 229.866 1573.44 228.972C1577.09 228.078 1580.77 227.631 1584.5 227.631C1590.46 227.631 1595.75 228.6 1600.37 230.536C1605.06 232.399 1609.01 235.155 1612.21 238.806C1615.49 242.456 1617.99 246.963 1619.7 252.327C1621.41 257.616 1622.27 263.688 1622.27 270.541V342.617H1602.27V270.541C1602.27 261.676 1600.33 254.971 1596.46 250.427C1592.58 245.808 1587 243.499 1579.69 243.499C1576.42 243.499 1573.29 244.095 1570.31 245.287C1567.4 246.404 1564.83 248.08 1562.6 250.315C1560.36 252.55 1558.57 255.381 1557.23 258.808C1555.97 262.16 1555.33 266.072 1555.33 270.541V342.617H1535.33V270.541C1535.33 261.453 1533.51 254.673 1529.86 250.204C1526.21 245.734 1520.88 243.499 1513.88 243.499C1508.96 243.499 1504.42 244.84 1500.24 247.522C1496.07 250.129 1492.23 253.705 1488.73 258.249V342.617H1468.73Z" fill="black"/>
<path d="M1160.02 336.918L1157.27 339.545C1157.27 339.552 1157.28 339.559 1157.29 339.566L1160.02 336.918ZM1152.86 246.069H1156.67C1156.67 243.969 1154.96 242.266 1152.86 242.266V246.069ZM1136.21 245.063L1133.66 247.877C1133.7 247.922 1133.75 247.965 1133.81 248.006L1136.21 245.063ZM1134.98 233.777L1134.51 230.004C1132.61 230.245 1131.18 231.861 1131.18 233.777H1134.98ZM1153.53 231.43L1154.01 235.203C1155.73 234.986 1157.08 233.639 1157.3 231.924L1153.53 231.43ZM1158.12 196.454L1154.39 195.708C1154.37 195.792 1154.36 195.876 1154.34 195.96L1158.12 196.454ZM1159.57 193.772L1162.11 196.599C1162.12 196.594 1162.12 196.59 1162.13 196.586L1159.57 193.772ZM1172.75 192.655H1176.56C1176.56 190.555 1174.85 188.852 1172.75 188.852V192.655ZM1172.75 231.654H1168.95C1168.95 233.754 1170.65 235.457 1172.75 235.457V231.654ZM1205.5 231.654H1209.3C1209.3 229.554 1207.6 227.851 1205.5 227.851V231.654ZM1205.5 246.069V249.872C1207.6 249.872 1209.3 248.169 1209.3 246.069H1205.5ZM1172.75 246.069V242.266C1170.65 242.266 1168.95 243.969 1168.95 246.069H1172.75ZM1176.22 324.626L1178.91 321.937L1176.22 324.626ZM1190.52 327.308L1191.78 330.897C1191.81 330.886 1191.84 330.874 1191.88 330.862L1190.52 327.308ZM1194.54 325.408L1192.59 322.148H1192.59L1194.54 325.408ZM1197.34 323.62L1199.52 326.736C1199.54 326.723 1199.56 326.709 1199.57 326.696L1197.34 323.62ZM1202.25 324.626L1205.5 322.642C1205.48 322.614 1205.46 322.587 1205.45 322.56L1202.25 324.626ZM1208.07 334.125L1210.66 336.902C1211.98 335.67 1212.25 333.68 1211.31 332.14L1208.07 334.125ZM1195.66 341.723L1196.98 345.29C1196.99 345.285 1197.01 345.279 1197.03 345.272L1195.66 341.723ZM1180.69 340.602C1172.47 340.602 1166.68 338.328 1162.74 334.27L1157.29 339.566C1163.03 345.491 1171.03 348.208 1180.69 348.208V340.602ZM1162.76 334.292C1158.89 330.23 1156.67 324.118 1156.67 315.351H1149.06C1149.06 325.358 1151.61 333.623 1157.27 339.545L1162.76 334.292ZM1156.67 315.351V246.069H1149.06V315.351H1156.67ZM1152.86 242.266H1139.23V249.872H1152.86V242.266ZM1139.23 242.266C1138.8 242.266 1138.68 242.165 1138.62 242.12L1133.81 248.006C1135.39 249.303 1137.28 249.872 1139.23 249.872V242.266ZM1138.77 242.25C1138.8 242.278 1138.83 242.311 1138.85 242.34C1138.87 242.369 1138.87 242.379 1138.86 242.357C1138.84 242.309 1138.79 242.117 1138.79 241.711H1131.18C1131.18 243.885 1131.8 246.187 1133.66 247.877L1138.77 242.25ZM1138.79 241.711V233.777H1131.18V241.711H1138.79ZM1135.46 237.55L1154.01 235.203L1153.06 227.658L1134.51 230.004L1135.46 237.55ZM1157.3 231.924L1161.89 196.948L1154.34 195.96L1149.76 230.937L1157.3 231.924ZM1161.84 197.2C1161.93 196.771 1162.06 196.648 1162.11 196.599L1157.02 190.946C1155.59 192.238 1154.75 193.903 1154.39 195.708L1161.84 197.2ZM1162.13 196.586C1162.14 196.569 1162.23 196.457 1162.7 196.457V188.852C1160.63 188.852 1158.63 189.486 1157.01 190.958L1162.13 196.586ZM1162.7 196.457H1172.75V188.852H1162.7V196.457ZM1168.95 192.655V231.654H1176.56V192.655H1168.95ZM1172.75 235.457H1205.5V227.851H1172.75V235.457ZM1201.69 231.654V246.069H1209.3V231.654H1201.69ZM1205.5 242.266H1172.75V249.872H1205.5V242.266ZM1168.95 246.069V314.01H1176.56V246.069H1168.95ZM1168.95 314.01C1168.95 319.323 1170.24 324.021 1173.53 327.315L1178.91 321.937C1177.58 320.613 1176.56 318.233 1176.56 314.01H1168.95ZM1173.53 327.315C1176.64 330.424 1180.63 331.893 1185.16 331.893V324.288C1182.39 324.288 1180.42 323.447 1178.91 321.937L1173.53 327.315ZM1185.16 331.893C1187.54 331.893 1189.78 331.597 1191.78 330.897L1189.27 323.719C1188.29 324.062 1186.95 324.288 1185.16 324.288V331.893ZM1191.88 330.862C1193.59 330.207 1195.15 329.482 1196.5 328.669L1192.59 322.148C1191.71 322.676 1190.58 323.217 1189.17 323.755L1191.88 330.862ZM1196.5 328.669C1197.67 327.971 1198.68 327.325 1199.52 326.736L1195.16 320.505C1194.51 320.959 1193.66 321.505 1192.59 322.148L1196.5 328.669ZM1199.57 326.696C1199.69 326.61 1199.78 326.551 1199.85 326.511C1199.92 326.471 1199.96 326.456 1199.96 326.455C1199.96 326.453 1199.92 326.471 1199.84 326.489C1199.76 326.508 1199.63 326.529 1199.46 326.529V318.924C1197.67 318.924 1196.16 319.774 1195.1 320.545L1199.57 326.696ZM1199.46 326.529C1199.33 326.529 1199.19 326.508 1199.06 326.466C1198.93 326.425 1198.85 326.375 1198.8 326.346C1198.76 326.319 1198.77 326.318 1198.82 326.372C1198.87 326.427 1198.96 326.527 1199.06 326.692L1205.45 322.56C1204.27 320.733 1202.31 318.924 1199.46 318.924V326.529ZM1199.01 326.611L1204.82 336.109L1211.31 332.14L1205.5 322.642L1199.01 326.611ZM1205.47 331.347C1202.44 334.182 1198.73 336.468 1194.3 338.174L1197.03 345.272C1202.28 343.253 1206.84 340.473 1210.66 336.902L1205.47 331.347ZM1194.34 338.156C1189.92 339.789 1185.38 340.602 1180.69 340.602V348.208C1186.28 348.208 1191.72 347.233 1196.98 345.29L1194.34 338.156ZM1246.04 244.505H1242.23C1242.23 246.063 1243.18 247.464 1244.63 248.039C1246.08 248.614 1247.74 248.247 1248.8 247.112L1246.04 244.505ZM1262.13 232.213L1260.38 228.837L1262.13 232.213ZM1298.78 230.76L1297.24 234.235C1297.26 234.245 1297.28 234.254 1297.3 234.264L1298.78 230.76ZM1310.63 239.476L1307.69 241.893C1307.71 241.914 1307.72 241.935 1307.74 241.956L1310.63 239.476ZM1317.89 252.997L1321.52 251.872L1317.89 252.997ZM1320.35 342.617V346.42C1322.45 346.42 1324.15 344.717 1324.15 342.617H1320.35ZM1300.34 342.617H1296.54C1296.54 344.717 1298.24 346.42 1300.34 346.42V342.617ZM1294.42 250.651L1291.47 253.049C1291.48 253.065 1291.5 253.082 1291.51 253.099L1294.42 250.651ZM1260.12 247.745L1258.28 244.414C1258.27 244.418 1258.27 244.422 1258.26 244.426L1260.12 247.745ZM1246.04 259.255L1243.2 256.723C1242.58 257.42 1242.23 258.321 1242.23 259.255H1246.04ZM1246.04 342.617V346.42C1248.14 346.42 1249.84 344.717 1249.84 342.617H1246.04ZM1226.03 342.617H1222.23C1222.23 344.717 1223.93 346.42 1226.03 346.42V342.617ZM1226.03 178.016V174.213C1223.93 174.213 1222.23 175.916 1222.23 178.016H1226.03ZM1246.04 178.016H1249.84C1249.84 175.916 1248.14 174.213 1246.04 174.213V178.016ZM1248.8 247.112C1253.37 242.263 1258.4 238.433 1263.88 235.588L1260.38 228.837C1254.09 232.101 1248.38 236.466 1243.27 241.897L1248.8 247.112ZM1263.88 235.588C1269.14 232.856 1275.31 231.434 1282.47 231.434V223.828C1274.28 223.828 1266.88 225.461 1260.38 228.837L1263.88 235.588ZM1282.47 231.434C1288.22 231.434 1293.12 232.404 1297.24 234.235L1300.32 227.285C1295.06 224.944 1289.07 223.828 1282.47 223.828V231.434ZM1297.3 234.264C1301.53 236.049 1304.97 238.593 1307.69 241.893L1313.56 237.059C1310.02 232.76 1305.56 229.494 1300.26 227.256L1297.3 234.264ZM1307.74 241.956C1310.56 245.238 1312.75 249.268 1314.26 254.123L1321.52 251.872C1319.75 246.148 1317.09 241.164 1313.51 236.997L1307.74 241.956ZM1314.26 254.123C1315.77 258.996 1316.54 264.458 1316.54 270.541H1324.15C1324.15 263.812 1323.29 257.578 1321.52 251.872L1314.26 254.123ZM1316.54 270.541V342.617H1324.15V270.541H1316.54ZM1320.35 338.815H1300.34V346.42H1320.35V338.815ZM1304.15 342.617V270.541H1296.54V342.617H1304.15ZM1304.15 270.541C1304.15 261.431 1302.05 253.81 1297.33 248.203L1291.51 253.099C1294.69 256.878 1296.54 262.518 1296.54 270.541H1304.15ZM1297.37 248.253C1292.57 242.345 1285.4 239.696 1276.65 239.696V247.302C1283.85 247.302 1288.52 249.42 1291.47 253.049L1297.37 248.253ZM1276.65 239.696C1270.13 239.696 1263.99 241.273 1258.28 244.414L1261.95 251.076C1266.53 248.556 1271.41 247.302 1276.65 247.302V239.696ZM1258.26 244.426C1252.79 247.486 1247.77 251.603 1243.2 256.723L1248.87 261.787C1252.95 257.223 1257.32 253.667 1261.97 251.065L1258.26 244.426ZM1242.23 259.255V342.617H1249.84V259.255H1242.23ZM1246.04 338.815H1226.03V346.42H1246.04V338.815ZM1229.84 342.617V178.016H1222.23V342.617H1229.84ZM1226.03 181.819H1246.04V174.213H1226.03V181.819ZM1242.23 178.016V244.505H1249.84V178.016H1242.23ZM1426.42 273.67V277.473C1428.52 277.473 1430.22 275.77 1430.22 273.67H1426.42ZM1424.41 261.043L1420.79 262.225C1420.8 262.253 1420.81 262.281 1420.82 262.309L1424.41 261.043ZM1418.71 251.098L1415.84 253.591C1415.86 253.618 1415.89 253.644 1415.91 253.671L1418.71 251.098ZM1409.66 244.616L1408.13 248.1C1408.15 248.109 1408.17 248.118 1408.2 248.127L1409.66 244.616ZM1374.79 250.651L1377.48 253.34L1374.79 250.651ZM1364.51 273.67L1360.74 273.156C1360.6 274.244 1360.93 275.344 1361.65 276.171C1362.37 276.998 1363.41 277.473 1364.51 277.473V273.67ZM1442.51 326.749L1445.44 329.169C1446.57 327.802 1446.61 325.836 1445.53 324.431L1442.51 326.749ZM1433.68 334.572L1435.71 337.788C1435.73 337.778 1435.74 337.767 1435.76 337.757L1433.68 334.572ZM1422.62 339.935L1421.34 336.356C1421.33 336.358 1421.32 336.361 1421.32 336.364L1422.62 339.935ZM1410.55 343.064L1409.95 339.31C1409.93 339.313 1409.91 339.317 1409.88 339.321L1410.55 343.064ZM1376.47 340.271L1375.03 343.79C1375.05 343.797 1375.06 343.803 1375.08 343.809L1376.47 340.271ZM1359.37 328.649L1356.58 331.235C1356.6 331.249 1356.61 331.263 1356.62 331.277L1359.37 328.649ZM1347.75 261.602L1344.17 260.318C1344.17 260.329 1344.16 260.341 1344.16 260.352L1347.75 261.602ZM1358.26 243.834L1361.07 246.394C1361.07 246.387 1361.08 246.38 1361.09 246.373L1358.26 243.834ZM1374.91 231.989L1376.41 235.48C1376.42 235.475 1376.43 235.471 1376.45 235.466L1374.91 231.989ZM1415.8 231.095L1414.38 234.623C1414.4 234.63 1414.42 234.637 1414.44 234.644L1415.8 231.095ZM1430.78 240.929L1428.04 243.57C1428.06 243.586 1428.07 243.602 1428.09 243.618L1430.78 240.929ZM1440.72 256.797L1437.16 258.136C1437.17 258.141 1437.17 258.146 1437.17 258.15L1440.72 256.797ZM1363.84 286.074V282.271C1362.81 282.271 1361.83 282.688 1361.11 283.427C1360.4 284.166 1360.01 285.164 1360.04 286.193L1363.84 286.074ZM1366.75 304.735L1363.13 305.907C1363.14 305.923 1363.14 305.938 1363.15 305.953L1366.75 304.735ZM1374.12 318.033L1371.26 320.537C1371.27 320.547 1371.28 320.557 1371.29 320.567L1374.12 318.033ZM1385.3 325.967L1383.84 329.481C1383.86 329.488 1383.88 329.495 1383.9 329.502L1385.3 325.967ZM1412.68 326.861L1413.81 330.491C1413.82 330.486 1413.84 330.481 1413.86 330.476L1412.68 326.861ZM1422.06 323.062L1420.32 319.68L1422.06 323.062ZM1428.54 319.374L1430.62 322.559C1430.63 322.552 1430.64 322.545 1430.65 322.538L1428.54 319.374ZM1436.92 319.486L1433.82 321.679C1433.85 321.721 1433.88 321.763 1433.91 321.804L1436.92 319.486ZM1430.22 273.67C1430.22 268.682 1429.5 264.038 1427.99 259.777L1420.82 262.309C1422 265.647 1422.62 269.42 1422.62 273.67H1430.22ZM1428.02 259.861C1426.6 255.517 1424.44 251.716 1421.51 248.525L1415.91 253.671C1418.04 255.992 1419.68 258.821 1420.79 262.225L1428.02 259.861ZM1421.58 248.604C1418.72 245.315 1415.22 242.814 1411.12 241.106L1408.2 248.127C1411.25 249.399 1413.78 251.218 1415.84 253.591L1421.58 248.604ZM1411.18 241.133C1407.05 239.326 1402.46 238.467 1397.48 238.467V246.072C1401.58 246.072 1405.11 246.778 1408.13 248.1L1411.18 241.133ZM1397.48 238.467C1387.16 238.467 1378.55 241.518 1372.1 247.962L1377.48 253.34C1382.21 248.609 1388.73 246.072 1397.48 246.072V238.467ZM1372.1 247.962C1365.86 254.206 1362.17 262.727 1360.74 273.156L1368.28 274.184C1369.54 264.947 1372.7 258.121 1377.48 253.34L1372.1 247.962ZM1364.51 277.473H1426.42V269.868H1364.51V277.473ZM1439.58 324.329C1437.38 326.995 1434.73 329.349 1431.61 331.386L1435.76 337.757C1439.49 335.324 1442.73 332.463 1445.44 329.169L1439.58 324.329ZM1431.66 331.355C1428.47 333.362 1425.03 335.03 1421.34 336.356L1423.9 343.515C1428.1 342.009 1432.04 340.102 1435.71 337.788L1431.66 331.355ZM1421.32 336.364C1417.67 337.694 1413.89 338.677 1409.95 339.31L1411.16 346.819C1415.56 346.111 1419.82 345.008 1423.93 343.507L1421.32 336.364ZM1409.88 339.321C1405.92 340.028 1402.01 340.379 1398.15 340.379V347.984C1402.48 347.984 1406.84 347.591 1411.22 346.808L1409.88 339.321ZM1398.15 340.379C1390.76 340.379 1384.01 339.148 1377.86 336.732L1375.08 343.809C1382.19 346.607 1389.9 347.984 1398.15 347.984V340.379ZM1377.91 336.751C1371.84 334.269 1366.59 330.697 1362.12 326.021L1356.62 331.277C1361.84 336.733 1367.99 340.908 1375.03 343.79L1377.91 336.751ZM1362.16 326.063C1357.79 321.35 1354.31 315.481 1351.78 308.376L1344.62 310.929C1347.45 318.872 1351.42 325.667 1356.58 331.235L1362.16 326.063ZM1351.78 308.376C1349.27 301.341 1347.98 293.145 1347.98 283.727H1340.37C1340.37 293.828 1341.76 302.916 1344.62 310.929L1351.78 308.376ZM1347.98 283.727C1347.98 276.218 1349.11 269.269 1351.34 262.851L1344.16 260.352C1341.62 267.642 1340.37 275.443 1340.37 283.727H1347.98ZM1351.33 262.886C1353.63 256.466 1356.89 250.987 1361.07 246.394L1355.44 241.274C1350.54 246.664 1346.79 253.03 1344.17 260.318L1351.33 262.886ZM1361.09 246.373C1365.24 241.737 1370.34 238.104 1376.41 235.48L1373.4 228.498C1366.36 231.536 1360.35 235.8 1355.42 241.295L1361.09 246.373ZM1376.45 235.466C1382.45 232.804 1389.29 231.434 1397.03 231.434V223.828C1388.38 223.828 1380.47 225.364 1373.36 228.513L1376.45 235.466ZM1397.03 231.434C1403.37 231.434 1409.14 232.512 1414.38 234.623L1417.22 227.568C1410.99 225.06 1404.25 223.828 1397.03 223.828V231.434ZM1414.44 234.644C1419.75 236.688 1424.27 239.663 1428.04 243.57L1433.51 238.287C1428.94 233.553 1423.48 229.972 1417.17 227.546L1414.44 234.644ZM1428.09 243.618C1431.91 247.436 1434.95 252.246 1437.16 258.136L1444.28 255.457C1441.73 248.682 1438.14 242.915 1433.47 238.24L1428.09 243.618ZM1437.17 258.15C1439.36 263.898 1440.5 270.578 1440.5 278.252H1448.1C1448.1 269.834 1446.85 262.21 1444.28 255.443L1437.17 258.15ZM1440.5 278.252C1440.5 279.7 1440.42 280.786 1440.29 281.559C1440.16 282.399 1440.01 282.578 1440.09 282.453L1446.49 286.566C1447.24 285.398 1447.6 284.013 1447.8 282.766C1448.01 281.454 1448.1 279.932 1448.1 278.252H1440.5ZM1440.09 282.453C1440.15 282.371 1440.22 282.295 1440.29 282.236C1440.36 282.179 1440.4 282.162 1440.39 282.167C1440.35 282.183 1440.1 282.271 1439.49 282.271V289.877C1441.96 289.877 1444.82 289.173 1446.49 286.566L1440.09 282.453ZM1439.49 282.271H1363.84V289.877H1439.49V282.271ZM1360.04 286.193C1360.27 293.605 1361.28 300.196 1363.13 305.907L1370.37 303.564C1368.79 298.696 1367.86 292.846 1367.64 285.955L1360.04 286.193ZM1363.15 305.953C1365.07 311.634 1367.75 316.526 1371.26 320.537L1376.98 315.529C1374.24 312.389 1372.01 308.415 1370.35 303.518L1363.15 305.953ZM1371.29 320.567C1374.8 324.493 1378.99 327.473 1383.84 329.481L1386.75 322.453C1382.96 320.885 1379.71 318.576 1376.96 315.499L1371.29 320.567ZM1383.9 329.502C1388.73 331.417 1394.05 332.34 1399.82 332.34V324.735C1394.87 324.735 1390.51 323.944 1386.7 322.432L1383.9 329.502ZM1399.82 332.34C1405.08 332.34 1409.77 331.754 1413.81 330.491L1411.54 323.231C1408.43 324.203 1404.55 324.735 1399.82 324.735V332.34ZM1413.86 330.476C1417.64 329.239 1420.97 327.9 1423.8 326.443L1420.32 319.68C1417.94 320.905 1415.01 322.099 1411.49 323.246L1413.86 330.476ZM1423.8 326.443C1426.48 325.066 1428.76 323.771 1430.62 322.559L1426.47 316.189C1424.9 317.212 1422.86 318.376 1420.32 319.68L1423.8 326.443ZM1430.65 322.538C1432.2 321.504 1432.97 321.389 1433.12 321.389V313.784C1430.75 313.784 1428.46 314.86 1426.43 316.21L1430.65 322.538ZM1433.12 321.389C1433.45 321.389 1433.58 321.448 1433.6 321.462C1433.62 321.472 1433.7 321.508 1433.82 321.679L1440.03 317.293C1438.38 314.951 1435.92 313.784 1433.12 313.784V321.389ZM1433.91 321.804L1439.5 329.068L1445.53 324.431L1439.94 317.167L1433.91 321.804ZM1468.73 342.617H1464.93C1464.93 344.717 1466.63 346.42 1468.73 346.42V342.617ZM1468.73 229.419V225.616C1466.63 225.616 1464.93 227.319 1464.93 229.419H1468.73ZM1485.94 233.554L1489.71 233.082C1489.7 232.938 1489.67 232.796 1489.63 232.655L1485.94 233.554ZM1487.39 245.175L1483.62 245.647C1483.81 247.159 1484.88 248.412 1486.35 248.831C1487.81 249.25 1489.39 248.755 1490.35 247.571L1487.39 245.175ZM1501.47 232.548L1499.45 229.328L1501.47 232.548ZM1538.01 234.001L1535.46 236.82C1535.47 236.827 1535.48 236.834 1535.48 236.84L1538.01 234.001ZM1548.29 251.209L1544.64 252.264C1545.09 253.824 1546.48 254.927 1548.1 255.007C1549.73 255.088 1551.22 254.13 1551.82 252.622L1548.29 251.209ZM1554.55 240.594L1551.69 238.089C1551.68 238.103 1551.67 238.117 1551.65 238.131L1554.55 240.594ZM1563.27 233.218L1561.3 229.964V229.964L1563.27 233.218ZM1573.44 228.972L1572.53 225.278C1572.53 225.28 1572.52 225.281 1572.51 225.283L1573.44 228.972ZM1600.37 230.536L1598.9 234.043C1598.92 234.053 1598.94 234.062 1598.96 234.071L1600.37 230.536ZM1612.21 238.806L1609.35 241.314C1609.36 241.325 1609.37 241.336 1609.38 241.346L1612.21 238.806ZM1619.7 252.327L1616.08 253.484C1616.08 253.489 1616.08 253.494 1616.08 253.499L1619.7 252.327ZM1622.27 342.617V346.42C1624.37 346.42 1626.07 344.717 1626.07 342.617H1622.27ZM1602.27 342.617H1598.46C1598.46 344.717 1600.17 346.42 1602.27 346.42V342.617ZM1596.46 250.427L1593.54 252.871C1593.55 252.879 1593.56 252.886 1593.56 252.894L1596.46 250.427ZM1570.31 245.287L1571.67 248.836C1571.69 248.83 1571.7 248.824 1571.72 248.818L1570.31 245.287ZM1562.6 250.315L1565.29 253.004V253.004L1562.6 250.315ZM1557.23 258.808L1553.69 257.422C1553.69 257.436 1553.68 257.45 1553.68 257.464L1557.23 258.808ZM1555.33 342.617V346.42C1557.43 346.42 1559.14 344.717 1559.14 342.617H1555.33ZM1535.33 342.617H1531.53C1531.53 344.717 1533.23 346.42 1535.33 346.42V342.617ZM1529.86 250.204L1526.91 252.609L1529.86 250.204ZM1500.24 247.522L1502.26 250.746C1502.27 250.738 1502.29 250.729 1502.3 250.72L1500.24 247.522ZM1488.73 258.249L1485.72 255.928C1485.21 256.594 1484.93 257.41 1484.93 258.249H1488.73ZM1488.73 342.617V346.42C1490.83 346.42 1492.54 344.717 1492.54 342.617H1488.73ZM1472.53 342.617V229.419H1464.93V342.617H1472.53ZM1468.73 233.222H1480.69V225.616H1468.73V233.222ZM1480.69 233.222C1481.48 233.222 1481.73 233.408 1481.77 233.441C1481.81 233.474 1482.06 233.672 1482.25 234.452L1489.63 232.655C1489.15 230.679 1488.18 228.81 1486.48 227.465C1484.77 226.119 1482.72 225.616 1480.69 225.616V233.222ZM1482.17 234.025L1483.62 245.647L1491.17 244.703L1489.71 233.082L1482.17 234.025ZM1490.35 247.571C1494.27 242.73 1498.66 238.808 1503.5 235.767L1499.45 229.328C1493.86 232.844 1488.85 237.339 1484.44 242.779L1490.35 247.571ZM1503.5 235.767C1508.04 232.913 1513.35 231.434 1519.58 231.434V223.828C1512.09 223.828 1505.34 225.627 1499.45 229.328L1503.5 235.767ZM1519.58 231.434C1526.43 231.434 1531.6 233.329 1535.46 236.82L1540.56 231.181C1535.04 226.18 1527.92 223.828 1519.58 223.828V231.434ZM1535.48 236.84C1539.63 240.53 1542.72 245.602 1544.64 252.264L1551.95 250.155C1549.7 242.364 1545.94 235.964 1540.54 231.161L1535.48 236.84ZM1551.82 252.622C1553.33 248.858 1555.21 245.685 1557.45 243.056L1551.65 238.131C1548.82 241.462 1546.54 245.366 1544.76 249.797L1551.82 252.622ZM1557.41 243.098C1559.78 240.395 1562.39 238.195 1565.24 236.472L1561.3 229.964C1557.74 232.115 1554.54 234.832 1551.69 238.089L1557.41 243.098ZM1565.24 236.472C1568.12 234.729 1571.16 233.462 1574.36 232.661L1572.51 225.283C1568.56 226.27 1564.82 227.834 1561.3 229.964L1565.24 236.472ZM1574.34 232.666C1577.7 231.843 1581.08 231.434 1584.5 231.434V223.828C1580.47 223.828 1576.48 224.313 1572.53 225.278L1574.34 232.666ZM1584.5 231.434C1590.05 231.434 1594.82 232.335 1598.9 234.043L1601.84 227.03C1596.67 224.864 1590.87 223.828 1584.5 223.828V231.434ZM1598.96 234.071C1603.12 235.72 1606.56 238.134 1609.35 241.314L1615.07 236.297C1611.45 232.176 1607 229.077 1601.77 227.002L1598.96 234.071ZM1609.38 241.346C1612.25 244.542 1614.5 248.557 1616.08 253.484L1623.32 251.17C1621.47 245.369 1618.73 240.37 1615.04 236.265L1609.38 241.346ZM1616.08 253.499C1617.65 258.333 1618.47 263.997 1618.47 270.541H1626.07C1626.07 263.379 1625.18 256.899 1623.32 251.155L1616.08 253.499ZM1618.47 270.541V342.617H1626.07V270.541H1618.47ZM1622.27 338.815H1602.27V346.42H1622.27V338.815ZM1606.07 342.617V270.541H1598.46V342.617H1606.07ZM1606.07 270.541C1606.07 261.197 1604.04 253.459 1599.35 247.96L1593.56 252.894C1596.62 256.484 1598.46 262.155 1598.46 270.541H1606.07ZM1599.37 247.983C1594.62 242.322 1587.86 239.696 1579.69 239.696V247.302C1586.13 247.302 1590.54 249.295 1593.54 252.871L1599.37 247.983ZM1579.69 239.696C1575.94 239.696 1572.33 240.381 1568.9 241.756L1571.72 248.818C1574.24 247.809 1576.89 247.302 1579.69 247.302V239.696ZM1568.94 241.738C1565.53 243.049 1562.51 245.021 1559.91 247.627L1565.29 253.004C1567.15 251.14 1569.27 249.76 1571.67 248.836L1568.94 241.738ZM1559.91 247.626C1557.25 250.288 1555.19 253.586 1553.69 257.422L1560.77 260.194C1561.96 257.176 1563.48 254.812 1565.29 253.004L1559.91 247.626ZM1553.68 257.464C1552.21 261.338 1551.53 265.722 1551.53 270.541H1559.14C1559.14 266.421 1559.72 262.983 1560.79 260.152L1553.68 257.464ZM1551.53 270.541V342.617H1559.14V270.541H1551.53ZM1555.33 338.815H1535.33V346.42H1555.33V338.815ZM1539.13 342.617V270.541H1531.53V342.617H1539.13ZM1539.13 270.541C1539.13 261.051 1537.25 253.241 1532.8 247.798L1526.91 252.609C1529.77 256.106 1531.53 261.855 1531.53 270.541H1539.13ZM1532.8 247.798C1528.27 242.255 1521.75 239.696 1513.88 239.696V247.302C1520.01 247.302 1524.14 249.213 1526.91 252.609L1532.8 247.798ZM1513.88 239.696C1508.22 239.696 1502.97 241.25 1498.19 244.323L1502.3 250.72C1505.86 248.429 1509.7 247.302 1513.88 247.302V239.696ZM1498.23 244.297C1493.61 247.18 1489.45 251.084 1485.72 255.928L1491.75 260.57C1495.02 256.326 1498.53 253.078 1502.26 250.746L1498.23 244.297ZM1484.93 258.249V342.617H1492.54V258.249H1484.93ZM1488.73 338.815H1468.73V346.42H1488.73V338.815Z" fill="black"/>
<path d="M863.226 324.285L842.421 303.481L909.921 235.267L857.333 182.678L897.969 142.042L972.076 215.435" stroke="black" stroke-width="28.7244" stroke-linejoin="round"/>
<path d="M858.187 319.247L884.03 345.089L952.244 277.589L1004.83 330.178L1045.47 289.542L968.793 212.152" stroke="black" stroke-width="28.7244" stroke-linejoin="round"/>
<path d="M931.755 175.502L1055.87 23.5188L1163.73 22.0903" stroke="black" stroke-width="28.7244" stroke-linecap="round" stroke-linejoin="round"/>
<path d="M1010.31 254.061L1162.3 129.947L1163.73 22.0903" stroke="black" stroke-width="28.7244" stroke-linecap="round" stroke-linejoin="round"/>
<path d="M976.532 209.284L1090.1 95.7156" stroke="black" stroke-width="28.7244" stroke-linecap="round" stroke-linejoin="round"/>
<path d="M956.091 11.3639C965.629 8.80838 975.671 8.80836 985.208 11.3639C994.746 13.9195 1003.44 18.9406 1010.42 25.9225" stroke="black" stroke-width="18.8976" stroke-linecap="round" stroke-linejoin="round"/>
<path d="M886.698 94.5458C896.235 91.9903 906.277 91.9902 915.815 94.5458C925.352 97.1014 934.049 102.122 941.031 109.104" stroke="black" stroke-width="18.8976" stroke-linecap="round" stroke-linejoin="round"/>
<path d="M921.877 50.6169C931.415 48.0613 941.457 48.0613 950.995 50.6168C960.532 53.1724 969.229 58.1935 976.211 65.1754" stroke="black" stroke-width="18.8976" stroke-linecap="round" stroke-linejoin="round"/>
</g>
<defs>
<clipPath id="clip0_20_2">
<rect width="1626.11" height="359.451" fill="white"/>
</clipPath>
</defs>
</svg>
